<?xml version="1.0" encoding="utf-8"?>
<!-- Generator: Adobe Illustrator 24.3.0, SVG Export Plug-In . SVG Version: 6.00 Build 0)  -->
<svg version="1.1" id="katman_1" xmlns="http://www.w3.org/2000/svg" xmlns:xlink="http://www.w3.org/1999/xlink" x="0px" y="0px"
	 viewBox="0 0 1200 800" style="enable-background:new 0 0 1200 800;" xml:space="preserve">
<style type="text/css">
	.st0{fill:#FFFFFF;}
	.st1{fill:#010202;}
</style>
<polygon class="st0" points="253.6,700 600,100 946.4,700 "/>
<path class="st1" d="M715.5,620c-8.4-14.5-14.7-25.5-23.1-40c-35.3,0-281.1,0-323.3,0c83.8-145.1,161.4-279.6,254-440L600,100
	c-25.3,43.8-224.7,389.3-300.2,520C389.4,620,637,620,715.5,620z"/>
<path class="st1" d="M646.2,340c-8.4,14.5-14.7,25.5-23.1,40c57.1,99,111.1,192.5,161.6,280c-238.4,0-45.3,0-508,0l-23.1,40
	c20.2,0,575.6,0,600.4,0C823.1,646.3,676.9,393.3,646.2,340z"/>
<path class="st1" d="M646.2,180c-29.9,51.8-177.8,308-207.8,360c16.7,0,29.5,0,46.2,0c31.5-54.6,126.2-218.6,161.6-280
	c93.7,162.2,166.5,288.5,254,440h46.2C926.6,665.7,708.9,288.7,646.2,180z"/>
</svg>
